<svg width="156" height="40" viewBox="0 0 156 40" fill="none" xmlns="http://www.w3.org/2000/svg">
<path d="M73.78 1.25H71.136V29.1947H73.78V1.25Z" fill="#8A8A8A"/>
<path d="M107.797 28.3251C103.929 28.3251 100.772 24.2934 100.772 19.3132C100.772 14.333 103.929 10.3013 107.797 10.3013C111.664 10.3013 114.821 14.333 114.821 19.3132C114.86 24.2539 111.703 28.3251 107.797 28.3251ZM114.86 11.2895C113.085 9.03652 110.598 7.61359 107.836 7.61359C102.509 7.61359 98.1678 12.831 98.1678 19.2737C98.1678 25.7164 102.509 30.9338 107.836 30.9338C110.598 30.9338 113.085 29.5108 114.86 27.2579V27.9693C114.86 33.582 112.65 35.0839 108.862 35.6768C103.811 36.1511 102.193 33.3843 102.153 33.2658L101.009 33.8982L99.8252 34.4911C99.9041 34.6492 101.877 38.3251 107.718 38.3251C108.152 38.3251 108.665 38.2855 109.138 38.246H109.217C113.163 37.6136 117.189 35.9535 117.425 28.6017V8.95746H114.781V11.2895H114.86Z" fill="#8A8A8A"/>
<path d="M92.0511 24.5701C91.104 25.7163 88.9335 27.8112 86.7631 27.8507C84.79 27.8903 83.4483 27.495 82.5406 26.5859C81.5146 25.5978 81.0016 23.8586 81.0016 21.4476V9.15507H78.3576V21.4871C78.3576 24.6491 79.1469 26.9812 80.6859 28.4831C82.0671 29.827 83.9613 30.4989 86.5263 30.4989C86.6053 30.4989 86.6842 30.4989 86.8026 30.4989C88.8546 30.4594 90.7094 29.3922 92.0511 28.2855V30.2223H94.6951V9.15507H92.0511V24.5701Z" fill="#8A8A8A"/>
<path d="M124.529 9.15517H121.885V28.9575H124.529V9.15517Z" fill="#8A8A8A"/>
<path d="M131.829 1.25H129.185V28.9575H131.829V1.25Z" fill="#8A8A8A"/>
<path d="M145.641 28.3251C141.537 28.3251 138.222 24.2934 138.222 19.3132C138.222 14.333 141.537 10.3013 145.641 10.3013C149.745 10.3013 153.06 14.2934 153.06 19.2737C153.06 24.2539 149.745 28.3251 145.641 28.3251ZM145.641 7.61359C140.116 7.61359 135.578 12.831 135.578 19.2737C135.578 25.7164 140.077 30.9338 145.641 30.9338C151.166 30.9338 155.704 25.7164 155.704 19.2737C155.704 12.831 151.205 7.61359 145.641 7.61359Z" fill="#8A8A8A"/>
<path d="M124.608 4.29342C124.608 5.08394 123.976 5.71635 123.187 5.71635C122.398 5.71635 121.766 5.08394 121.766 4.29342C121.766 3.50291 122.398 2.8705 123.187 2.8705C123.976 2.8705 124.608 3.50291 124.608 4.29342Z" fill="#8A8A8A"/>
<path d="M58.0739 28.325C54.6012 28.325 51.7205 25.0839 51.1285 20.8152V17.7717C51.681 13.5029 54.5618 10.2618 58.0739 10.2618C61.9413 10.2618 65.0982 14.2934 65.0982 19.2737C65.0982 24.2539 61.9413 28.325 58.0739 28.325ZM58.0739 7.61359C55.351 7.61359 52.9043 8.95746 51.1285 11.1709V8.95746H48.4846V36.8626H51.1285V27.3764C52.9043 29.5503 55.351 30.9337 58.0739 30.9337C63.4014 30.9337 67.7422 25.7164 67.7422 19.2737C67.7422 12.831 63.4014 7.61359 58.0739 7.61359Z" fill="#8A8A8A"/>
<path d="M33.2914 17.9692H28.8322C28.0429 12.8703 23.3074 7.96916 17.5854 6.94149C15.4939 6.58576 14.4678 6.54623 12.1396 6.54623V11.6055H3.33944C2.19502 11.6055 1.24792 12.5541 1.24792 13.7399C1.24792 14.9257 2.19502 15.8743 3.33944 15.8743H12.1396V22.9099H3.3789C2.23449 22.9099 1.28739 23.8585 1.28739 25.0443C1.28739 26.23 2.23449 27.1786 3.3789 27.1786H12.1396V32.317C14.4678 32.317 16.0858 32.2775 17.6248 31.8822C23.189 30.4593 28.0035 25.9138 28.7927 20.9336H33.252L33.2914 17.9692Z" fill="#1DA6F3"/>
</svg>
