<svg width="120" height="120" viewBox="0 0 120 120" fill="none" xmlns="http://www.w3.org/2000/svg">
<path d="M29.946 66.3744C29.6184 66.5458 16.64 73.3356 16.9675 73.1639L16.9359 73.1955L14.8828 69.343C15.201 69.1758 22.1115 65.544 21.6727 65.7746L27.9253 62.4902C28.091 62.8088 30.1117 66.6929 29.946 66.3744Z" fill="#F1F6FA"/>
<path d="M29.946 66.3745C29.6184 66.5459 16.64 73.3357 16.9675 73.164L15.9568 71.2062C16.2755 71.0408 22.2379 67.9481 21.862 68.1431L28.9357 64.417L29.946 66.3745Z" fill="#E3E7F0"/>
<g opacity="0.27">
<path d="M20.3512 71.3999C20.0332 71.5666 16.6075 73.3624 16.9255 73.1957L14.8985 69.3307L18.0456 67.6807C18.8622 68.8262 19.6624 70.1709 20.3512 71.3999Z" fill="#111D33"/>
</g>
<path d="M27.0505 88.0404C28.0963 90.6161 28.3476 91.9488 28.0541 92.1071L24.2605 94.1532L9.84166 67.4187L13.6353 65.3726C16.6785 63.7313 24.5815 81.9623 27.0505 88.0404Z" fill="#E3E7F0"/>
<path d="M23.2571 90.0868C24.3031 92.662 24.5543 93.9951 24.2605 94.1535C23.9667 94.3119 22.9908 93.3698 21.4136 91.0811C17.6909 85.6792 7.40939 68.7308 9.8417 67.419C12.8851 65.7776 20.7882 84.0087 23.2571 90.0868Z" fill="#9EA9C9"/>
<path d="M26.903 92.7282L26.3435 93.0299C25.1173 89.2678 15.9247 68.2727 12.1062 66.1975L12.7323 65.8599C16.8217 68.7934 25.646 88.9352 26.903 92.7282Z" fill="#78E75A"/>
<path d="M101.222 89.5022C99.9346 91.966 99.0809 93.0198 98.7703 92.8984L94.7558 91.3293L105.813 63.0386L109.828 64.6077C113.048 65.8663 104.259 83.6873 101.222 89.5022Z" fill="#E3E7F0"/>
<path d="M97.2075 87.9335C95.9206 90.3972 95.0666 91.4511 94.7557 91.3296C94.4449 91.2081 94.5319 89.8544 95.2567 87.171C96.9674 80.8376 103.239 62.0328 105.813 63.0389C109.034 64.2976 100.245 82.1187 97.2075 87.9335Z" fill="#9EA9C9"/>
<path d="M97.5521 92.4227L96.9601 92.1913C99.0754 88.7576 109.097 68.2259 108.21 63.9756L108.872 64.2345C109.291 69.37 99.419 89.3586 97.5521 92.4227Z" fill="#78E75A"/>
<g opacity="0.33">
<path d="M103.611 70.8357C103.123 72.1598 102.296 73.0747 101.766 72.8791C101.235 72.6831 101.202 71.4508 101.69 70.1267C102.179 68.8025 103.005 67.8876 103.536 68.0836C104.066 68.2792 104.1 69.5115 103.611 70.8357Z" fill="#111D33"/>
</g>
<path d="M101.788 72.4061C101.472 72.3024 99.3568 71.6078 99.6726 71.7115C99.3515 71.6061 86.956 67.5399 87.7357 67.7957L88.4303 65.7114V65.6798L89.0933 63.6274C89.4263 63.7371 103.399 68.3412 103.083 68.2378C104.254 68.6073 103.045 72.6047 101.788 72.4061Z" fill="#F1F6FA"/>
<path d="M103.335 70.5742C103.02 71.5846 102.388 72.5005 101.788 72.4057C101.472 72.302 99.3568 71.6073 99.6726 71.711C99.3515 71.6057 86.956 67.5395 87.7357 67.7953L88.4303 65.7109L100.462 69.6267H100.494L103.335 70.5742Z" fill="#E3E7F0"/>
<path d="M40.668 35.4466C40.3536 35.7624 36.5551 39.5777 36.8696 39.2619C35.369 37.768 27.8336 30.2658 28.255 30.6854C27.9392 30.371 25.1595 27.604 25.4753 27.9184C25.7897 27.6026 29.5881 23.7872 29.2738 24.103C30.1022 24.9278 41.331 36.1067 40.668 35.4466Z" fill="#E3E7F0"/>
<path d="M38.6801 37.4428L36.8696 39.2618C35.369 37.7679 27.8336 30.2657 28.255 30.6853C27.9392 30.3709 25.1595 27.6039 25.4753 27.9183C25.7906 27.6017 27.6012 25.7838 27.2859 26.1003C34.062 32.8457 39.0124 37.7736 38.6801 37.4428Z" fill="#C9CEE2"/>
<g opacity="0.17">
<path d="M31.889 26.7069C31.32 28.5058 29.9782 29.9616 28.2553 30.6858L25.4756 27.9188C25.79 27.603 29.5884 23.7877 29.274 24.1035L31.889 26.7069Z" fill="#111D33"/>
</g>
<g opacity="0.17">
<path d="M40.7999 35.5756C40.4855 35.8914 36.6871 39.7067 37.0015 39.3909L32.9529 35.3602C34.1914 34.0297 35.5265 32.7876 36.8896 31.6821L40.7999 35.5756Z" fill="#111D33"/>
</g>
<path d="M91.9193 29.3633C91.6532 29.6897 87.9941 34.1796 88.2602 33.8532L81.7634 41.828C81.4369 41.5619 77.2637 38.1615 77.5902 38.4276C77.8562 38.101 88.011 25.6363 87.745 25.9628C88.0715 26.2288 92.2458 29.6293 91.9193 29.3633Z" fill="#E3E7F0"/>
<path d="M77.6128 38.4678L87.7733 26.0082L89.7631 27.6308L79.6025 40.0903L77.6128 38.4678Z" fill="#C9CEE2"/>
<g opacity="0.17">
<path d="M88.1018 34.0382L81.605 42.013C81.2786 41.7469 77.1054 38.3465 77.4318 38.6125L83.8452 30.7412C85.3412 31.742 86.7632 32.8442 88.1018 34.0382Z" fill="#111D33"/>
</g>
<g opacity="0.17">
<path d="M89.7732 31.9732C87.9267 31.5857 86.3448 30.3952 85.453 28.7527L87.9301 25.7119C88.2566 25.9779 92.4304 29.3785 92.1039 29.1125L89.7732 31.9732Z" fill="#111D33"/>
</g>
<path d="M87.6736 30.0758C90.5154 32.2084 94.5391 31.6405 96.6717 28.7987C98.7723 25.9996 98.2624 21.9529 95.3881 19.7959C92.9659 17.9782 89.6721 18.1299 87.4381 19.9812C84.2468 22.5931 84.3217 27.5604 87.6736 30.0758Z" fill="#FF0000"/>
<path d="M87.4381 19.9812C86.2895 22.6372 87.0691 25.8359 89.4913 27.6536C91.9136 29.4713 95.2026 29.326 97.4319 27.4809C98.5618 24.8894 97.8546 21.6467 95.3882 19.7958C92.9235 17.9462 89.6121 18.1708 87.4381 19.9812Z" fill="#FF4545"/>
<path d="M89.0057 19.0308C88.4273 23.9306 93.3597 27.6361 97.9061 25.71C98.5101 20.8007 93.5486 17.0798 89.0057 19.0308Z" fill="#FF6C6C"/>
<g opacity="0.4">
<path d="M92.4201 20.0625C92.0146 20.6029 92.4849 21.6316 93.4576 22.3615C94.4366 23.0962 95.5556 23.2603 95.9612 22.7199C96.3619 22.1859 95.8964 21.1508 94.9175 20.4162C93.9447 19.6862 92.8209 19.5285 92.4201 20.0625Z" fill="white"/>
</g>
<g opacity="0.27">
<path d="M29.946 66.3744L22.2093 70.4166C21.9913 69.3712 21.7402 67.4593 21.6727 65.7746L27.9253 62.4902C28.091 62.8088 30.1117 66.6929 29.946 66.3744Z" fill="#111D33"/>
</g>
<path d="M100.178 63.4696C100.178 85.2718 82.405 102.343 61.3041 102.343C39.8306 102.343 22.4306 84.9434 22.4306 63.4696C22.4306 48.9964 30.3723 36.4451 41.6621 29.9327C47.4093 26.5224 54.136 24.5957 61.3041 24.5957C82.7775 24.5957 100.178 41.9957 100.178 63.4696Z" fill="#C9CEE2"/>
<path d="M100.178 63.4696C100.178 70.9582 97.9781 78.2291 94.2727 83.9959C87.3251 90.5013 78.0095 94.4799 67.7775 94.4799C46.3041 94.4799 28.9041 77.0803 28.9041 55.6064C28.9041 48.059 31.0516 40.9854 34.8093 35.0169C36.8936 33.0906 39.1988 31.3536 41.6621 29.9327C47.4093 26.5224 54.136 24.5957 61.3041 24.5957C82.7775 24.5957 100.178 41.9957 100.178 63.4696Z" fill="#E3E7F0"/>
<g opacity="0.3">
<path d="M100.746 67.48C100.635 68.7635 100.378 70.5856 100.052 71.8375C99.7355 71.7344 96.7353 70.7557 97.0513 70.8588L87.7357 67.7957L88.4303 65.7114V65.6798L89.0933 63.6274C89.4262 63.7375 101.501 67.7297 100.746 67.48Z" fill="#111D33"/>
</g>
<path d="M100.178 63.4696C100.178 70.0388 98.4304 76.4826 95.82 81.3114C90.0725 84.6589 83.3465 86.6168 76.178 86.6168C54.7042 86.6168 37.3042 69.1855 37.3042 47.7433C37.3042 41.3327 38.8831 35.2694 41.6621 29.9327C47.4093 26.5224 54.136 24.5957 61.3041 24.5957C82.7775 24.5957 100.178 41.9957 100.178 63.4696Z" fill="#F1F6FA"/>
<path d="M94.5734 57.836C93.8335 62.2346 89.6794 65.2065 85.2692 64.7446C74.2625 63.5792 63.1634 63.5792 52.1568 64.7446C47.7467 65.2066 43.5926 62.2347 42.8527 57.836C42.1132 53.4449 45.5048 49.2165 50.4575 48.6947C62.5939 47.4097 74.8322 47.4097 86.9686 48.6947C91.9214 49.2166 95.3133 53.4447 94.5734 57.836Z" fill="#31445B"/>
<path d="M91.8823 57.6952C91.2956 61.6125 87.9837 64.1852 84.5346 63.7866C82.6227 63.5596 80.6992 63.3707 78.7715 63.2218C77.0307 63.0856 75.2866 62.9822 73.5426 62.9125C66.773 62.6048 58.8544 62.8592 51.0466 63.7866C47.5852 64.1901 44.2852 61.5938 43.701 57.6962C43.1253 53.8503 45.8648 50.2238 49.7238 49.7668C55.7023 49.0553 61.781 48.6953 67.7911 48.6953C75.718 48.6953 84.3567 49.4949 86.2248 49.8196C89.914 50.4632 92.4363 53.9967 91.8823 57.6952Z" fill="#1DA6F3"/>
<g opacity="0.3">
<path d="M91.9583 50.8395C91.4115 50.6737 90.8372 50.5565 90.2396 50.4943C78.1032 49.2084 65.8645 49.2084 53.7281 50.4943C48.7341 51.0196 45.3875 55.2851 46.1239 59.6356C46.449 61.5707 47.4361 63.2292 48.8138 64.4412C45.8114 63.5586 43.3991 61.0872 42.8522 57.8367C42.1222 53.467 45.4753 49.2206 50.4575 48.6953C62.5939 47.4095 74.8327 47.4095 86.969 48.6953C88.9306 48.9012 90.6461 49.6888 91.9583 50.8395Z" fill="#111D33"/>
</g>
<g opacity="0.3">
<path d="M64.0663 56.6019C64.0663 59.5368 61.6867 61.9163 58.7529 61.9163C55.8181 61.9163 53.4385 59.5368 53.4385 56.6019C53.4385 53.6681 55.8181 51.2886 58.7529 51.2886C61.6867 51.2886 64.0663 53.6681 64.0663 56.6019Z" fill="#111D33"/>
</g>
<path d="M63.0723 56.6168C63.0723 58.9852 61.1464 60.9115 58.7464 60.9115C56.378 60.9115 54.4513 58.9852 54.4513 56.6168C54.4513 54.2168 56.378 52.2905 58.7464 52.2905C61.1464 52.2905 63.0723 54.2168 63.0723 56.6168Z" fill="#FFD475"/>
<path d="M82.0656 56.6168C82.0656 58.9852 80.1397 60.9115 77.7396 60.9115C75.3712 60.9115 73.4446 58.9852 73.4446 56.6168C73.4446 54.2168 75.3712 52.2905 77.7396 52.2905C80.1397 52.2905 82.0656 54.2168 82.0656 56.6168Z" fill="#FFD475"/>
<g opacity="0.3">
<path d="M83.0689 56.6019C83.0689 59.5368 80.6894 61.9163 77.7556 61.9163C74.8207 61.9163 72.4412 59.5368 72.4412 56.6019C72.4412 53.6681 74.8207 51.2886 77.7556 51.2886C80.6894 51.2886 83.0689 53.6681 83.0689 56.6019Z" fill="#111D33"/>
</g>
<g opacity="0.27">
<path d="M80.3783 49.2158L72.7772 62.8829C69.7972 62.7752 66.7615 62.7651 63.8576 62.8492L71.6993 48.7471C74.5909 48.8199 77.4899 48.9772 80.3783 49.2158Z" fill="white"/>
</g>
<g opacity="0.27">
<path d="M86.2248 49.8199L78.7715 63.2221C77.0307 63.0859 75.2866 62.9824 73.5426 62.9127L81.1247 49.2783C82.1901 49.3714 85.4673 49.6882 86.2248 49.8199Z" fill="white"/>
</g>
<path d="M75.2756 33.366C73.5929 32.7606 71.8353 31.8911 71.3881 30.7932C70.9288 29.7056 72.6764 28.7741 75.2431 29.6621C77.8078 30.5532 79.3707 32.5511 78.9553 33.3401C78.5472 34.1574 76.9637 33.9311 75.2756 33.366Z" fill="white"/>
<path d="M87.0123 38.8265C89.3567 42.6625 88.3772 45.7263 86.9493 45.185C85.5216 44.6925 84.2286 42.2461 82.7958 40.0157C81.4515 37.736 80.0607 35.558 80.6136 34.5467C81.0926 33.5191 84.6409 34.98 87.0123 38.8265Z" fill="white"/>
<path d="M29.9061 20.2447C32.0387 23.0865 31.4595 27.1086 28.6178 29.2411C25.2664 31.7561 20.4758 30.4412 18.8595 26.6463C17.7062 23.9839 18.4811 20.7789 20.9033 18.9612C23.7812 16.8015 27.8083 17.4493 29.9061 20.2447Z" fill="#FF0000"/>
<path d="M28.8533 19.1464C30.0019 21.8025 29.2223 25.0011 26.8001 26.8189C24.3779 28.6366 21.0888 28.4912 18.8595 26.6462C18.6114 26.0772 18.4522 25.4811 18.3853 24.8755C17.6784 19.1301 24.406 15.4431 28.8533 19.1464Z" fill="#FF4545"/>
<path d="M27.2857 18.1963C27.8641 23.0962 22.9317 26.8016 18.3853 24.8755C17.7813 19.9662 22.7428 16.2453 27.2857 18.1963Z" fill="#FF6C6C"/>
<g opacity="0.4">
<path d="M23.8713 19.2281C24.2768 19.7685 23.8066 20.7971 22.8339 21.5271C21.8549 22.2617 20.7358 22.4258 20.3302 21.8854C19.9295 21.3514 20.395 20.3164 21.374 19.5817C22.3467 18.8517 23.4705 18.6941 23.8713 19.2281Z" fill="white"/>
</g>
</svg>
